<svg width="27" height="11" viewBox="0 0 27 11" fill="none" xmlns="http://www.w3.org/2000/svg">
<path d="M6.16481 10.14C5.38081 10.14 4.67148 10.014 4.03681 9.762C3.40215 9.51 2.85615 9.15533 2.39881 8.698C1.94148 8.24067 1.59148 7.704 1.34881 7.088C1.10615 6.46267 0.984813 5.786 0.984813 5.058C0.984813 4.33 1.11081 3.66267 1.36281 3.056C1.62415 2.44 1.99281 1.90333 2.46881 1.446C2.94481 0.988666 3.50481 0.634 4.14881 0.381999C4.80215 0.129999 5.51148 0.00399935 6.27681 0.00399935C6.81815 0.00399935 7.32681 0.0739993 7.80281 0.213999C8.28815 0.354 8.72681 0.545333 9.11881 0.787999C9.51081 1.03067 9.84215 1.31067 10.1128 1.628L8.67081 3.154C8.43748 2.93 8.19481 2.74333 7.94281 2.594C7.70015 2.44467 7.43881 2.328 7.15881 2.244C6.87881 2.15067 6.58015 2.104 6.26281 2.104C5.85215 2.104 5.47415 2.17867 5.12881 2.328C4.79281 2.47733 4.49415 2.68733 4.23281 2.958C3.98081 3.21933 3.78481 3.532 3.64481 3.896C3.50481 4.25067 3.43481 4.638 3.43481 5.058C3.43481 5.478 3.50948 5.87 3.65881 6.234C3.80815 6.598 4.01348 6.91533 4.27481 7.186C4.53615 7.44733 4.84415 7.65733 5.19881 7.816C5.56281 7.96533 5.95015 8.04 6.36081 8.04C6.65015 8.04 6.92081 7.99333 7.17281 7.9C7.43415 7.80667 7.65815 7.68067 7.84481 7.522C8.03148 7.36333 8.18081 7.17667 8.29281 6.962C8.40481 6.738 8.46081 6.5 8.46081 6.248V5.884L8.76881 6.36H6.06681V4.498H10.6728C10.6915 4.60067 10.7055 4.74067 10.7148 4.918C10.7241 5.09533 10.7288 5.268 10.7288 5.436C10.7381 5.604 10.7428 5.73 10.7428 5.814C10.7428 6.44867 10.6261 7.032 10.3928 7.564C10.1688 8.08667 9.85148 8.53933 9.44081 8.922C9.03015 9.30467 8.54481 9.60333 7.98481 9.818C7.42481 10.0327 6.81815 10.14 6.16481 10.14ZM12.2333 10V7.998H13.8853V2.202H12.2333V0.199999H17.9313V2.202H16.2653V7.998H17.9313V10H12.2333ZM20.1949 10V0.199999H22.5749V10H20.1949ZM21.3009 6.248V4.26H26.3689V6.248H21.3009ZM21.3009 2.3V0.199999H26.9429V2.3H21.3009Z" fill="#6C5CD6"/>
</svg>
